<?xml version="1.0" encoding="utf-8"?>
<!-- Generator: Adobe Illustrator 18.1.0, SVG Export Plug-In . SVG Version: 6.00 Build 0)  -->
<!DOCTYPE svg PUBLIC "-//W3C//DTD SVG 1.1//EN" "http://www.w3.org/Graphics/SVG/1.1/DTD/svg11.dtd">
<svg version="1.1" xmlns="http://www.w3.org/2000/svg" xmlns:xlink="http://www.w3.org/1999/xlink" x="0px" y="0px"
	 viewBox="0 0 2022.4 269.5" enable-background="new 0 0 2022.4 269.5" xml:space="preserve">
<g id="bg" display="none">
	<rect x="1008.4" y="-30.5" display="inline" fill="#777777" width="1113.1" height="627.1"/>
</g>
<g id="Layer_1" display="none">
	<g display="inline">
		<g>
			<defs>
				<rect id="SVGID_1_" x="1801.6" y="26.7" width="215.8" height="195"/>
			</defs>
			<clipPath id="SVGID_2_">
				<use xlink:href="#SVGID_1_"  overflow="visible"/>
			</clipPath>
			<path clip-path="url(#SVGID_2_)" d="M2017,113.1c-10.8-20.7-32.9-33.4-53.2-43.3c-20-9.7-30.6-8.3-45.9,0.7
				c-1.4-2.2-3.1-4.2-5.3-5.7c-3.7-2.4-8.1-2.6-12.3-1.6c-0.2-1.8-0.6-3.6-1-5.4c-2.1-12.1-9.6-22.3-19.5-30.1
				c-4.3-3.4-10.4,2.6-6.1,6.1c10.6,8.2,17,18.1,17.5,31.2c-4.6,1-8.7,3.7-11.4,8.4c-3.5,6.1-5.4,12.2-3.4,18.2
				c-24.4,8.9-46.6,23-69.1,35.8c-1.9,1.1-2.4,3.2-1.8,5c-6.2,25-3,49.9-2.4,75.4c0.1,2.8,2.1,4.5,4.7,4.7
				c35.4,3.9,70.9,5.1,106.6,5.7c23.8,0.3,49.8,4.8,73.3,1.3c8.5-1.3,12.5-9.6,15.1-16.6c9.8-25.5,1.9-55.4,12-81.5
				c0.2-0.6,0.3-1.3,0.3-1.8C2017.3,118.5,2018.3,115.6,2017,113.1L2017,113.1z M1878.9,96.8c0.2,0.4,0.5,0.7,0.8,1.1
				c11.1,13,36.2,8.2,41-8c0.8-2.8,1-5.9,0.6-9c18.5-9.9,31.5-5.8,52.3,5.5c10.3,5.6,19.4,12.8,27.9,20.8
				c8.6,8.1-25.8,12.1-26.8,12.3c-48.9,9.4-99.8,8.1-149.5,7.6C1843.2,117,1861.2,107.2,1878.9,96.8L1878.9,96.8z M1976.3,210.6
				c-11.6,0.2-23.4-1.4-35-1.7c-35.8-0.9-71.4-0.6-107.1-2.9c-15.8-1.1-22.3-11.8-24.6-25.4c32.9,10.4,73.8,13.4,108.2,14.1
				c25.2,0.6,50.3,3,75.3,4.1C1990.8,205.6,1986,210.4,1976.3,210.6L1976.3,210.6z M1997.3,154.6c-0.6-0.6-1.3-1-2.2-1.2
				c-4.5-2.2-10.3-2.6-14.9-1.7c-0.4,0.1-0.6,0.2-1,0.4c-25.8-3.4-59.1,3.8-81.4,2.5c-12.9-0.8-45.5-7.1-68.7-4.9
				c-0.5-0.4-1-0.7-1.6-0.9c-5.4-1.6-11.1-1.8-16.8-1.8c-0.6,0-1.2,0.2-1.7,0.3c0.2-4.2,0.6-8.2,0.7-11.9
				c65,0.2,130.1,2.2,193.6-12.7C2000,133.1,1998.4,143.8,1997.3,154.6L1997.3,154.6z M1997.3,154.6"/>
		</g>
	</g>
</g>
<g id="Layer_2" display="none">
	<path display="inline" fill="none" stroke="#000000" stroke-width="3" stroke-miterlimit="10" d="M1943.8,63.3
		c-3.1-5.4-139.3,70.1-139.3,70.1"/>
	<path display="inline" fill="none" stroke="#000000" stroke-width="3" stroke-miterlimit="10" d="M2017,113.9
		c-7.9-30.9-43.8-50.6-74.2-50.6"/>
	<g display="inline">
		<path fill="none" stroke="#000000" stroke-width="3" stroke-miterlimit="10" d="M1805.4,132.4c125-1.7,211.6-19.4,211.6-19.4"/>
		<path fill="none" stroke="#000000" stroke-width="3" stroke-miterlimit="10" d="M1803.8,212.7c0,0,151.9,8,199.7-0.9"/>
		<line fill="none" stroke="#000000" stroke-width="3" stroke-miterlimit="10" x1="2017" y1="113.1" x2="2002.4" y2="212.7"/>
		<line fill="none" stroke="#000000" stroke-width="3" stroke-miterlimit="10" x1="1805.4" y1="212.7" x2="1805.4" y2="132.4"/>
	</g>
	<g display="inline">
		<path fill="#B22D18" stroke="#000000" stroke-width="3" stroke-miterlimit="10" d="M2006.7,179.7c-106,8.7-201.3,9.1-201.3,0
			v-17.3c0,10,149,7.7,204.3-3.3L2006.7,179.7z"/>
	</g>
</g>
<g id="Layer_4">
	<path fill="#F0DEBF" stroke="#000000" stroke-width="3" stroke-miterlimit="10" d="M1798.6,133.4v78.4c0,0,181.7,4.4,204.8,0
		c29.3-5.5,12.7-99.1,13.5-97.9C2020.5,118.4,1800.1,133.4,1798.6,133.4z"/>
</g>
<g id="Icing">
	<g>
		<path fill="#FFFFFF" stroke="#000000" stroke-width="3" stroke-miterlimit="10" d="M1799,131.1c-0.3,0-0.4-0.3-0.1-0.5
			c12.7-6.2,139.3-67.4,143.9-67.4c10.6,0,54.4,3.6,74.2,49.8C2021,122.3,1816.2,130.5,1799,131.1z"/>
	</g>
</g>
<g id="Jam">
	<path fill="#B22D18" stroke="#000000" stroke-width="3" stroke-miterlimit="10" d="M2020.7,153.2c0,0,0,18.4-1.5,19.1
		c-21.2,9.9-217.5,20.4-220.5,7.7c-1.7-7.3,0-17.2,0-17.2S1860.4,171.7,2020.7,153.2z"/>
</g>
<g id="Cherry">
	<circle fill="#B22D18" stroke="#000000" stroke-width="3" stroke-miterlimit="10" cx="1916.1" cy="81.8" r="18.5"/>
	<path fill="none" stroke="#000000" stroke-width="3" stroke-miterlimit="10" d="M1916.1,69.7c0-17.7,9.6-32,21.5-32"/>
</g>
<g id="Small">
	<text transform="matrix(1 0 0 1 1.220703e-04 213.7493)" fill="#FFFFFF" font-family="'Raleway-Thin'" font-size="250">Small</text>
</g>
<g id="Victories">
	<text transform="matrix(1 0 0 1 720.072 213.75)" fill="#FFFFFF" font-family="'Raleway-Thin'" font-size="250">Victories</text>
</g>
</svg>
