<?xml version="1.0" encoding="iso-8859-1"?>
<!-- Generator: Adobe Illustrator 18.0.0, SVG Export Plug-In . SVG Version: 6.00 Build 0)  -->
<!DOCTYPE svg PUBLIC "-//W3C//DTD SVG 1.1//EN" "http://www.w3.org/Graphics/SVG/1.1/DTD/svg11.dtd">
<svg version="1.1" id="Capa_1" xmlns="http://www.w3.org/2000/svg" xmlns:xlink="http://www.w3.org/1999/xlink" x="0px" y="0px"
	 viewBox="0 0 297 297" style="enable-background:new 0 0 297 297;" xml:space="preserve">
<g>
	<path d="M287.138,235.437c5.446,0,9.862-4.417,9.862-9.862v-77.075c0-5.445-4.416-9.862-9.862-9.862h-82.563V71.425
		c0-5.445-4.416-9.862-9.862-9.862h-92.425c-5.446,0-9.862,4.417-9.862,9.862v36.384H9.862c-5.446,0-9.862,4.415-9.862,9.862
		v107.903c0,5.445,4.416,9.862,9.862,9.862H287.138z M19.725,127.533h72.701v88.18H19.725V127.533z M112.149,81.287h72.702v134.426
		h-72.702V81.287z M277.275,215.712h-72.7v-57.351h72.7V215.712z"/>
</g>
<g>
</g>
<g>
</g>
<g>
</g>
<g>
</g>
<g>
</g>
<g>
</g>
<g>
</g>
<g>
</g>
<g>
</g>
<g>
</g>
<g>
</g>
<g>
</g>
<g>
</g>
<g>
</g>
<g>
</g>
</svg>
