<?xml version="1.0" encoding="iso-8859-1"?>
<!-- Generator: Adobe Illustrator 18.0.0, SVG Export Plug-In . SVG Version: 6.00 Build 0)  -->
<!DOCTYPE svg PUBLIC "-//W3C//DTD SVG 1.1//EN" "http://www.w3.org/Graphics/SVG/1.1/DTD/svg11.dtd">
<svg version="1.1" id="Capa_1" xmlns="http://www.w3.org/2000/svg" xmlns:xlink="http://www.w3.org/1999/xlink" x="0px" y="0px"
	 viewBox="0 0 297 297" style="enable-background:new 0 0 297 297;" xml:space="preserve">
<g>
	<path d="M250.299,104.843l-203.59,0.011c-5.774,0-10.456,4.682-10.457,10.456l-0.01,66.389c0,2.773,1.102,5.435,3.063,7.396
		c1.962,1.961,4.621,3.063,7.396,3.063l203.59-0.013c5.774,0,10.456-4.682,10.457-10.457l0.01-66.386
		c0-2.774-1.102-5.435-3.064-7.396C255.733,105.945,253.073,104.843,250.299,104.843z M239.834,171.23l-182.675,0.01l0.007-45.473
		l182.675-0.008L239.834,171.23z"/>
	<path d="M263.535,0H33.465C15.013,0,0,15.013,0,33.465v230.07C0,281.987,15.013,297,33.465,297h230.07
		C281.987,297,297,281.987,297,263.535V33.465C297,15.013,281.987,0,263.535,0z M276.085,263.535c0,6.92-5.63,12.549-12.55,12.549
		H33.465c-6.92,0-12.55-5.629-12.55-12.549V33.465c0-6.92,5.63-12.55,12.55-12.55h230.07c6.92,0,12.55,5.63,12.55,12.55V263.535z"/>
</g>
<g>
</g>
<g>
</g>
<g>
</g>
<g>
</g>
<g>
</g>
<g>
</g>
<g>
</g>
<g>
</g>
<g>
</g>
<g>
</g>
<g>
</g>
<g>
</g>
<g>
</g>
<g>
</g>
<g>
</g>
</svg>
