<?xml version="1.0" encoding="iso-8859-1"?>
<!-- Generator: Adobe Illustrator 18.0.0, SVG Export Plug-In . SVG Version: 6.00 Build 0)  -->
<!DOCTYPE svg PUBLIC "-//W3C//DTD SVG 1.1//EN" "http://www.w3.org/Graphics/SVG/1.1/DTD/svg11.dtd">
<svg version="1.1" id="Capa_1" xmlns="http://www.w3.org/2000/svg" xmlns:xlink="http://www.w3.org/1999/xlink" x="0px" y="0px"
	 viewBox="0 0 297 297" style="enable-background:new 0 0 297 297;" xml:space="preserve">
<g>
	<path d="M174.683,138.955c0.962-1.541,1.527-3.356,1.527-5.308c0-5.552-4.501-10.053-10.053-10.053h-8.679l47.17-15.724
		c4.105-1.368,6.874-5.209,6.874-9.537V10.053C211.523,4.501,207.022,0,201.47,0H95.532C89.98,0,85.479,4.501,85.479,10.053v88.281
		c0,4.328,2.769,8.169,6.874,9.537l47.17,15.724h-8.679c-5.552,0-10.053,4.501-10.053,10.053c0,1.951,0.565,3.766,1.527,5.308
		c-31.844,10.941-54.809,41.239-54.809,76.833c0,44.78,36.332,81.212,80.99,81.212c44.657,0,80.988-36.432,80.988-81.212
		C229.489,180.194,206.525,149.898,174.683,138.955z M105.584,20.104h85.834v70.984l-42.917,14.306l-42.917-14.306V20.104z
		 M148.501,276.896c-33.572,0-60.886-27.412-60.886-61.107s27.313-61.107,60.886-61.107c33.571,0,60.884,27.412,60.884,61.107
		S182.072,276.896,148.501,276.896z"/>
	<path d="M148.477,192.617c5.549-0.011,10.042-4.514,10.042-10.063c-0.01-5.549-4.514-10.042-10.061-10.042
		c-5.56,0.01-10.053,4.513-10.043,10.063C138.415,188.123,142.929,192.617,148.477,192.617z"/>
	<path d="M125.046,202.378c2.583,0,5.166-0.985,7.137-2.966c3.911-3.93,3.891-10.303-0.04-14.214
		c-3.941-3.92-10.304-3.9-14.224,0.04c-3.911,3.931-3.891,10.294,0.04,14.215C119.919,201.402,122.482,202.378,125.046,202.378z"/>
	<path d="M115.416,225.98c5.559-0.03,10.042-4.543,10.012-10.093c0-0.02,0-0.03,0-0.04c0-0.02,0-0.04,0-0.06
		c0-5.55-4.493-10.053-10.053-10.053c-5.549,0-10.052,4.503-10.052,10.053c0,0.02,0,0.029,0,0.05c0,0.04,0,0.08,0,0.131
		c0.02,5.538,4.523,10.012,10.052,10.012C115.394,225.98,115.405,225.98,115.416,225.98z"/>
	<path d="M118.028,232.244c-3.919,3.941-3.909,10.304,0.021,14.223c1.96,1.951,4.533,2.936,7.096,2.936
		c2.574,0,5.157-0.984,7.117-2.955c3.921-3.931,3.91-10.304-0.019-14.214C128.312,228.314,121.949,228.314,118.028,232.244z"/>
	<path d="M181.601,205.665c-5.549,0.01-10.043,4.524-10.032,10.073c0.01,5.548,4.513,10.031,10.053,10.031c0.01,0,0.02,0,0.02,0
		c5.548-0.01,10.042-4.514,10.032-10.072C191.662,210.148,187.149,205.655,181.601,205.665z"/>
	<path d="M164.862,232.133h-0.01c-3.9,3.94-3.869,10.304,0.071,14.214c1.96,1.94,4.523,2.905,7.076,2.905
		c2.594,0,5.177-0.995,7.146-2.975c3.901-3.941,3.871-10.314-0.069-14.215C175.126,228.152,168.764,228.183,164.862,232.133z"/>
	<path d="M171.899,202.327c2.574,0,5.146-0.975,7.107-2.936c3.931-3.919,3.931-10.292,0.01-14.213
		c-3.92-3.931-10.293-3.94-14.214-0.01c-3.931,3.919-3.931,10.282-0.01,14.213C166.753,201.343,169.326,202.327,171.899,202.327z"/>
	<path d="M148.567,238.959c-5.548,0.02-10.031,4.533-10.012,10.082c0.011,5.539,4.514,10.023,10.053,10.023c0.011,0,0.021,0,0.03,0
		c5.549-0.021,10.032-4.534,10.021-10.083C158.641,243.432,154.127,238.938,148.567,238.959z"/>
</g>
<g>
</g>
<g>
</g>
<g>
</g>
<g>
</g>
<g>
</g>
<g>
</g>
<g>
</g>
<g>
</g>
<g>
</g>
<g>
</g>
<g>
</g>
<g>
</g>
<g>
</g>
<g>
</g>
<g>
</g>
</svg>
