<?xml version="1.0" encoding="iso-8859-1"?>
<!-- Generator: Adobe Illustrator 18.0.0, SVG Export Plug-In . SVG Version: 6.00 Build 0)  -->
<!DOCTYPE svg PUBLIC "-//W3C//DTD SVG 1.1//EN" "http://www.w3.org/Graphics/SVG/1.1/DTD/svg11.dtd">
<svg version="1.1" id="Capa_1" xmlns="http://www.w3.org/2000/svg" xmlns:xlink="http://www.w3.org/1999/xlink" x="0px" y="0px"
	 viewBox="0 0 297 297" style="enable-background:new 0 0 297 297;" xml:space="preserve">
<g>
	<path d="M148.5,154.924c-27.931,0-50.653,22.723-50.653,50.653c0,27.931,22.723,50.653,50.653,50.653s50.653-22.723,50.653-50.653
		C199.153,177.646,176.431,154.924,148.5,154.924z M148.5,236.463c-17.03,0-30.886-13.855-30.886-30.886
		c0-17.03,13.855-30.886,30.886-30.886s30.886,13.855,30.886,30.886C179.386,222.608,165.53,236.463,148.5,236.463z"/>
	<path d="M285.414,5.302C283.709,2.042,280.335,0,276.657,0h-79.233c-3.239,0-6.273,1.587-8.119,4.248L148.5,63.036L107.695,4.248
		C105.85,1.587,102.815,0,99.576,0H20.343c-3.678,0-7.052,2.042-8.757,5.302c-1.705,3.26-1.459,7.195,0.638,10.218l68.972,99.37
		c-3.607,1.473-6.151,5.012-6.151,9.148c0,5.458,4.425,9.884,9.883,9.884h6.862c-21.133,16.761-34.712,42.65-34.712,71.655
		C57.077,255.988,98.089,297,148.5,297s91.423-41.012,91.423-91.423c0-29.005-13.579-54.895-34.712-71.655h6.862
		c5.458,0,9.884-4.426,9.884-9.884c0-4.137-2.545-7.676-6.152-9.148l68.972-99.37C286.873,12.497,287.119,8.561,285.414,5.302z
		 M94.406,19.768l42.062,60.602l-23.449,33.785h-8.272L39.234,19.768H94.406z M220.155,205.577
		c0,39.511-32.145,71.655-71.655,71.655s-71.655-32.144-71.655-71.655c0-39.511,32.145-71.655,71.655-71.655
		S220.155,166.066,220.155,205.577z M192.253,114.154h-55.172l65.513-94.387h55.173L192.253,114.154z"/>
</g>
<g>
</g>
<g>
</g>
<g>
</g>
<g>
</g>
<g>
</g>
<g>
</g>
<g>
</g>
<g>
</g>
<g>
</g>
<g>
</g>
<g>
</g>
<g>
</g>
<g>
</g>
<g>
</g>
<g>
</g>
</svg>
