<?xml version="1.0" encoding="iso-8859-1"?>
<!-- Generator: Adobe Illustrator 18.0.0, SVG Export Plug-In . SVG Version: 6.00 Build 0)  -->
<!DOCTYPE svg PUBLIC "-//W3C//DTD SVG 1.1//EN" "http://www.w3.org/Graphics/SVG/1.1/DTD/svg11.dtd">
<svg version="1.1" id="Capa_1" xmlns="http://www.w3.org/2000/svg" xmlns:xlink="http://www.w3.org/1999/xlink" x="0px" y="0px"
	 viewBox="0 0 297 297" style="enable-background:new 0 0 297 297;" xml:space="preserve">
<g>
	<path d="M9.369,123.672c-5.174,0-9.369,4.194-9.369,9.369c0,5.173,4.195,9.369,9.369,9.369h9.02v83.385
		c0,2.485,0.987,4.867,2.744,6.626c1.757,1.757,4.14,2.743,6.625,2.743h241.484c5.174,0,9.369-4.196,9.369-9.369v-67.926h9.02
		c5.174,0,9.369-4.196,9.369-9.369c0-5.175-4.195-9.369-9.369-9.369h-76.099V80.574h6.533c5.174,0,9.369-4.196,9.369-9.369
		c0-5.175-4.195-9.369-9.369-9.369H78.935c-5.174,0-9.369,4.194-9.369,9.369c0,5.173,4.195,9.369,9.369,9.369h6.533v43.098H9.369z
		 M94.836,142.41c5.175,0,9.369-4.196,9.369-9.369V80.574h88.589V148.5c0,5.173,4.194,9.369,9.369,9.369h57.71v58.557H37.127V142.41
		H94.836z"/>
	<path d="M148.5,95.564c-3.622,0-6.559,2.936-6.559,6.559v15.459c0,3.623,2.936,6.559,6.559,6.559s6.559-2.936,6.559-6.559v-15.459
		C155.059,98.5,152.122,95.564,148.5,95.564z"/>
	<path d="M55.746,157.4c-3.622,0-6.559,2.936-6.559,6.559v15.459c0,3.621,2.937,6.559,6.559,6.559c3.622,0,6.559-2.938,6.559-6.559
		v-15.459C62.305,160.336,59.368,157.4,55.746,157.4z"/>
	<path d="M71.205,157.4c-3.622,0-6.559,2.936-6.559,6.559v15.459c0,3.621,2.937,6.559,6.559,6.559c3.622,0,6.559-2.938,6.559-6.559
		v-15.459C77.764,160.336,74.827,157.4,71.205,157.4z"/>
	<path d="M203.777,179.418v15.459c0,3.621,2.937,6.559,6.559,6.559c3.622,0,6.559-2.938,6.559-6.559v-15.459
		c0-3.623-2.937-6.559-6.559-6.559C206.714,172.859,203.777,175.795,203.777,179.418z"/>
	<path d="M225.795,201.436c3.622,0,6.559-2.938,6.559-6.559v-15.459c0-3.623-2.936-6.559-6.559-6.559
		c-3.622,0-6.559,2.936-6.559,6.559v15.459C219.236,198.498,222.173,201.436,225.795,201.436z"/>
	<path d="M241.254,201.436c3.622,0,6.559-2.938,6.559-6.559v-15.459c0-3.623-2.936-6.559-6.559-6.559s-6.559,2.936-6.559,6.559
		v15.459C234.695,198.498,237.632,201.436,241.254,201.436z"/>
</g>
<g>
</g>
<g>
</g>
<g>
</g>
<g>
</g>
<g>
</g>
<g>
</g>
<g>
</g>
<g>
</g>
<g>
</g>
<g>
</g>
<g>
</g>
<g>
</g>
<g>
</g>
<g>
</g>
<g>
</g>
</svg>
