<?xml version="1.0" encoding="iso-8859-1"?>
<!-- Generator: Adobe Illustrator 18.0.0, SVG Export Plug-In . SVG Version: 6.00 Build 0)  -->
<!DOCTYPE svg PUBLIC "-//W3C//DTD SVG 1.1//EN" "http://www.w3.org/Graphics/SVG/1.1/DTD/svg11.dtd">
<svg version="1.1" id="Capa_1" xmlns="http://www.w3.org/2000/svg" xmlns:xlink="http://www.w3.org/1999/xlink" x="0px" y="0px"
	 viewBox="0 0 297 297" style="enable-background:new 0 0 297 297;" xml:space="preserve">
<g>
	<path d="M69.795,297h-0.001c-2.892,0-5.667-1.15-7.712-3.196L3.248,234.944c-4.257-4.259-4.257-11.161,0-15.419l70.983-71.011
		L3.196,77.505C1.15,75.46,0,72.687,0,69.794c0-2.893,1.149-5.667,3.194-7.713L62.056,3.22c4.26-4.258,11.162-4.259,15.422-0.001
		l71.021,71.003l70.999-71.025C221.542,1.15,224.316,0,227.209,0c2.892,0,5.666,1.149,7.712,3.194l58.861,58.861
		c4.258,4.259,4.26,11.163,0.002,15.422l-70.998,71.015l71.019,71.003c2.046,2.046,3.195,4.82,3.195,7.712
		c0,2.894-1.15,5.668-3.196,7.713l-58.86,58.834c-4.258,4.258-11.161,4.258-15.419,0l-71.005-70.979l-71.013,71.029
		C75.462,295.851,72.687,297,69.795,297z M26.381,227.235l43.415,43.434l71.009-71.026c4.26-4.259,11.164-4.261,15.422-0.002
		l71.008,70.98l43.434-43.415l-71.017-70.999c-4.259-4.259-4.26-11.163-0.002-15.423l70.999-71.017l-43.439-43.438l-70.998,71.025
		c-2.045,2.046-4.818,3.195-7.711,3.195c-2.893,0-5.667-1.147-7.712-3.192L69.768,26.353L26.329,69.791l71.035,71.008
		c2.045,2.045,3.195,4.818,3.195,7.711c0.001,2.893-1.147,5.667-3.192,7.711L26.381,227.235z"/>
</g>
<g>
</g>
<g>
</g>
<g>
</g>
<g>
</g>
<g>
</g>
<g>
</g>
<g>
</g>
<g>
</g>
<g>
</g>
<g>
</g>
<g>
</g>
<g>
</g>
<g>
</g>
<g>
</g>
<g>
</g>
</svg>
