<?xml version="1.0" encoding="iso-8859-1"?>
<!-- Generator: Adobe Illustrator 18.0.0, SVG Export Plug-In . SVG Version: 6.00 Build 0)  -->
<!DOCTYPE svg PUBLIC "-//W3C//DTD SVG 1.1//EN" "http://www.w3.org/Graphics/SVG/1.1/DTD/svg11.dtd">
<svg version="1.1" id="Capa_1" xmlns="http://www.w3.org/2000/svg" xmlns:xlink="http://www.w3.org/1999/xlink" x="0px" y="0px"
	 viewBox="0 0 297 297" style="enable-background:new 0 0 297 297;" xml:space="preserve">
<path d="M25.602,222.329h35.366c9.577,0,17.935-5.288,22.327-13.093l18.965,6.322c9.336,3.112,24.109,10.402,32.256,15.918
	l56.128,38.003c7.1,4.808,15.63,6.401,23.411,4.366c7.361-1.926,13.317-6.791,16.772-13.701c6.414-12.834,3.407-31.679-6.846-42.9
	l-10.022-10.643h52.472c8.179,0.067,15.809-3.104,21.598-8.861c5.784-5.757,8.972-13.409,8.972-21.549v-0.934
	c0-7.479-2.71-14.334-7.193-19.647c4.483-5.314,7.193-12.169,7.193-19.65v-1.521c0-11.857-6.801-22.146-16.704-27.197
	c1.61-3.711,2.508-7.802,2.508-12.102V93.62c0-12.518-7.579-23.295-18.389-27.993c1.4-3.499,2.18-7.313,2.18-11.304v-1.521
	c0-16.825-13.687-30.514-30.512-30.514l-75.89,0.001c-12.454,0-30.938,4.363-42.083,9.934L82.381,50.09
	C77.802,43.118,69.916,38.5,60.968,38.5H25.602C11.486,38.5,0,49.985,0,64.1v132.628C0,210.844,11.486,222.329,25.602,222.329z
	 M252.292,84.837c4.845,0,8.783,3.94,8.783,8.783v1.521c0,4.845-3.939,8.785-8.783,8.785H239.52
	c-5.999,0-10.864,4.865-10.864,10.865c0,5.999,4.865,10.864,10.864,10.864h26.966c4.845,0,8.785,3.94,8.785,8.784v1.521
	c0,4.845-3.94,8.785-8.785,8.785h-21.171c-5.999,0-10.864,4.863-10.864,10.864c0,5.999,4.865,10.864,10.864,10.864h21.171
	c4.845,0,8.785,3.941,8.785,8.783v0.934c0,2.315-0.913,4.496-2.568,6.144c-1.647,1.638-3.817,2.296-6.103,2.296
	c-0.015,0-0.031,0-0.047,0h-77.31c-0.023,0-0.045,0-0.068,0c-5.969,0-10.826,4.579-10.864,10.556c-0.018,2.771,1.014,5.3,2.71,7.229
	l26.919,29.485c4.628,5.065,5.655,14.121,3.452,18.53c-0.632,1.261-1.585,2.067-2.837,2.395c-1.723,0.455-3.809-0.037-5.729-1.338
	l-56.128-38.003c-9.816-6.646-26.316-14.789-37.567-18.539l-22.561-7.521V72.29l41.26-20.632c8.142-4.07,23.265-7.641,32.364-7.641
	l75.89-0.001c4.844,0,8.782,3.94,8.782,8.785v1.521c0,4.845-3.938,8.785-8.782,8.785h-12.772c-5.999,0-10.864,4.864-10.864,10.864
	s4.865,10.864,10.864,10.864H252.292z M21.729,64.1c0-2.098,1.774-3.871,3.873-3.871h35.366c2.102,0,3.873,1.774,3.873,3.871
	v132.628c0,2.099-1.771,3.873-3.873,3.873H25.602c-2.099,0-3.873-1.774-3.873-3.873V64.1z"/>
<g>
</g>
<g>
</g>
<g>
</g>
<g>
</g>
<g>
</g>
<g>
</g>
<g>
</g>
<g>
</g>
<g>
</g>
<g>
</g>
<g>
</g>
<g>
</g>
<g>
</g>
<g>
</g>
<g>
</g>
</svg>
