<?xml version="1.0" encoding="iso-8859-1"?>
<!-- Generator: Adobe Illustrator 18.0.0, SVG Export Plug-In . SVG Version: 6.00 Build 0)  -->
<!DOCTYPE svg PUBLIC "-//W3C//DTD SVG 1.1//EN" "http://www.w3.org/Graphics/SVG/1.1/DTD/svg11.dtd">
<svg version="1.1" id="Capa_1" xmlns="http://www.w3.org/2000/svg" xmlns:xlink="http://www.w3.org/1999/xlink" x="0px" y="0px"
	 viewBox="0 0 297 297" style="enable-background:new 0 0 297 297;" xml:space="preserve">
<path d="M271.398,74.671h-35.366c-9.576,0-17.936,5.288-22.326,13.093l-18.966-6.322c-9.336-3.112-24.108-10.402-32.255-15.918
	l-56.127-38.003c-7.102-4.808-15.632-6.401-23.413-4.366c-7.361,1.926-13.317,6.791-16.772,13.7
	c-6.414,12.833-3.407,31.679,6.846,42.901l10.022,10.807H30.57c-8.18-0.068-15.81,2.94-21.598,8.697
	C3.188,105.016,0,112.668,0,120.808v0.934c0,7.48,2.71,14.335,7.193,19.648C2.71,146.703,0,153.558,0,161.037v1.523
	c0,11.855,6.802,22.146,16.704,27.195c-1.61,3.713-2.508,7.804-2.508,12.101v1.522c0,12.519,7.58,23.296,18.389,27.994
	c-1.4,3.499-2.18,7.312-2.18,11.304v1.521c0,16.825,13.688,30.513,30.512,30.513h75.89c12.454,0,30.939-4.363,42.083-9.934
	l35.73-17.867c4.579,6.973,12.465,11.59,21.412,11.59h35.366c14.116,0,25.602-11.484,25.602-25.6V100.272
	C297,86.156,285.515,74.671,271.398,74.671z M30.514,130.526c-4.845,0-8.785-3.941-8.785-8.784v-0.934
	c0-2.314,0.913-4.495,2.569-6.144c1.646-1.638,3.816-2.296,6.103-2.296c0.015,0,0.03,0,0.046,0h77.311c0.023,0,0.046,0,0.069,0
	c5.968,0,10.826-4.578,10.863-10.555c0.017-2.771-1.013-5.3-2.71-7.229L89.061,65.1c-4.628-5.065-5.655-14.121-3.451-18.53
	c0.631-1.261,1.585-2.067,2.837-2.395c1.723-0.455,3.808,0.037,5.729,1.338l56.128,38.003c9.815,6.646,26.316,14.789,37.566,18.539
	l22.561,7.522V224.71l-41.259,20.632c-8.142,4.07-23.266,7.641-32.365,7.641h-75.89c-4.844,0-8.782-3.941-8.782-8.784v-1.521
	c0-4.845,3.938-8.785,8.782-8.785h12.772c6,0,10.864-4.864,10.864-10.864s-4.864-10.864-10.864-10.864H44.708
	c-4.844,0-8.783-3.94-8.783-8.784v-1.522c0-4.843,3.939-8.783,8.783-8.783h12.771c6,0,10.864-4.865,10.864-10.865
	s-4.864-10.864-10.864-10.864H44.708H30.514c-4.845,0-8.785-3.94-8.785-8.784v-1.523c0-4.843,3.94-8.783,8.785-8.783h21.171
	c6,0,10.864-4.865,10.864-10.864c0-6-4.864-10.864-10.864-10.864H30.514z M275.272,232.901c0,2.098-1.774,3.871-3.873,3.871h-35.366
	c-2.1,0-3.873-1.773-3.873-3.871V100.272c0-2.098,1.773-3.872,3.873-3.872h35.366c2.1,0,3.873,1.774,3.873,3.872V232.901z"/>
<g>
</g>
<g>
</g>
<g>
</g>
<g>
</g>
<g>
</g>
<g>
</g>
<g>
</g>
<g>
</g>
<g>
</g>
<g>
</g>
<g>
</g>
<g>
</g>
<g>
</g>
<g>
</g>
<g>
</g>
</svg>
