<?xml version="1.0" encoding="iso-8859-1"?>
<!-- Generator: Adobe Illustrator 18.0.0, SVG Export Plug-In . SVG Version: 6.00 Build 0)  -->
<!DOCTYPE svg PUBLIC "-//W3C//DTD SVG 1.1//EN" "http://www.w3.org/Graphics/SVG/1.1/DTD/svg11.dtd">
<svg version="1.1" id="Capa_1" xmlns="http://www.w3.org/2000/svg" xmlns:xlink="http://www.w3.org/1999/xlink" x="0px" y="0px"
	 viewBox="0 0 297 297" style="enable-background:new 0 0 297 297;" xml:space="preserve">
<path d="M296.534,114.348c-1.104-3.396-4.018-5.891-7.545-6.456l-90.316-14.504l-41.7-81.427c-1.628-3.18-4.9-5.18-8.473-5.18
	c-3.572,0-6.845,2-8.473,5.18l-41.7,81.427L8.011,107.891c-3.528,0.565-6.44,3.06-7.545,6.456c-1.104,3.397-0.213,7.126,2.308,9.658
	l64.541,64.828l-14.115,90.397c-0.551,3.529,0.92,7.07,3.81,9.171c2.891,2.099,6.714,2.403,9.899,0.789l81.592-41.358l81.592,41.358
	c1.36,0.689,2.835,1.027,4.304,1.027c1.974,0,3.939-0.613,5.596-1.816c2.891-2.1,4.36-5.642,3.81-9.171l-9.072-58.096l39.421-0.009
	c5.256-0.001,9.516-4.263,9.518-9.519l0.004-42.474c0-2.525-1.003-4.947-2.789-6.732c-1.784-1.785-4.205-2.788-6.73-2.788
	c-0.001,0-0.001,0-0.001,0l-15.378,0.003l35.453-35.611C296.747,121.473,297.638,117.745,296.534,114.348z M264.629,202.091
	l-82.867,0.02l0.003-23.439l82.867-0.017L264.629,202.091z M231.903,159.623l-59.657,0.012c-5.256,0.001-9.517,4.262-9.518,9.518
	l-0.005,42.477c0,2.524,1.003,4.947,2.789,6.732c1.785,1.784,4.205,2.788,6.73,2.788h0.002l43.217-0.011l6.662,42.668
	l-69.319-35.137c-2.705-1.37-5.902-1.37-8.607,0l-69.319,35.137l11.991-76.802c0.469-2.996-0.52-6.036-2.658-8.186l-54.834-55.078
	l76.732-12.322c2.995-0.48,5.581-2.359,6.964-5.059L148.5,37.183l35.428,69.178c1.383,2.699,3.969,4.578,6.964,5.059l76.732,12.322
	L231.903,159.623z"/>
<g>
</g>
<g>
</g>
<g>
</g>
<g>
</g>
<g>
</g>
<g>
</g>
<g>
</g>
<g>
</g>
<g>
</g>
<g>
</g>
<g>
</g>
<g>
</g>
<g>
</g>
<g>
</g>
<g>
</g>
</svg>
