<?xml version="1.0" encoding="iso-8859-1"?>
<!-- Generator: Adobe Illustrator 18.0.0, SVG Export Plug-In . SVG Version: 6.00 Build 0)  -->
<!DOCTYPE svg PUBLIC "-//W3C//DTD SVG 1.1//EN" "http://www.w3.org/Graphics/SVG/1.1/DTD/svg11.dtd">
<svg version="1.1" id="Capa_1" xmlns="http://www.w3.org/2000/svg" xmlns:xlink="http://www.w3.org/1999/xlink" x="0px" y="0px"
	 viewBox="0 0 297 297" style="enable-background:new 0 0 297 297;" xml:space="preserve">
<path d="M264.733,188.811l30.596-45.895c2.035-3.053,2.225-6.977,0.494-10.212c-1.731-3.235-5.102-5.254-8.77-5.254h-95.776
	l-0.001-70.678c0-5.493-4.454-9.948-9.947-9.948H9.947c-3.668,0-7.039,2.019-8.771,5.254c-1.73,3.234-1.541,7.16,0.494,10.212
	l30.597,45.9L1.672,154.088c-2.035,3.053-2.225,6.977-0.493,10.212c1.73,3.233,5.102,5.254,8.769,5.254h95.776v70.674
	c0,5.493,4.454,9.948,9.947,9.948h171.381c3.668,0,7.039-2.02,8.77-5.254c1.73-3.235,1.541-7.16-0.494-10.212L264.733,188.811z
	 M52.501,113.708c2.227-3.342,2.227-7.694,0-11.036L28.534,66.72H171.38l0.001,82.939H28.536L52.501,113.708z M160.397,169.554
	L125.62,212.26v-42.706H160.397z M136.602,230.279l52.407-64.354c0.009-0.012,0.019-0.023,0.028-0.035l0.003-0.004
	c0.503-0.615,0.781-1.029,0.887-1.301c0.87-1.502,1.349-3.214,1.349-4.98v-12.26h77.189L244.5,183.294
	c-2.228,3.342-2.228,7.694,0,11.036l23.966,35.949H136.602z"/>
<g>
</g>
<g>
</g>
<g>
</g>
<g>
</g>
<g>
</g>
<g>
</g>
<g>
</g>
<g>
</g>
<g>
</g>
<g>
</g>
<g>
</g>
<g>
</g>
<g>
</g>
<g>
</g>
<g>
</g>
</svg>
