<?xml version="1.0" encoding="iso-8859-1"?>
<!-- Generator: Adobe Illustrator 18.0.0, SVG Export Plug-In . SVG Version: 6.00 Build 0)  -->
<!DOCTYPE svg PUBLIC "-//W3C//DTD SVG 1.1//EN" "http://www.w3.org/Graphics/SVG/1.1/DTD/svg11.dtd">
<svg version="1.1" id="Capa_1" xmlns="http://www.w3.org/2000/svg" xmlns:xlink="http://www.w3.org/1999/xlink" x="0px" y="0px"
	 viewBox="0 0 297 297" style="enable-background:new 0 0 297 297;" xml:space="preserve">
<g>
	<path d="M263.535,0H33.465C15.013,0,0,15.013,0,33.465v230.07C0,281.987,15.013,297,33.465,297h230.07
		C281.987,297,297,281.987,297,263.535V33.465C297,15.013,281.987,0,263.535,0z M276.085,263.535c0,6.92-5.63,12.549-12.55,12.549
		H33.465c-6.92,0-12.55-5.629-12.55-12.549V33.465c0-6.92,5.63-12.55,12.55-12.55h230.07c6.92,0,12.55,5.63,12.55,12.55V263.535z"/>
	<path d="M220.113,53.63c-1.962-1.962-4.622-3.065-7.398-3.065c-2.774,0-5.434,1.104-7.395,3.065l-83.573,83.607l-30.071-30.08
		c-1.962-1.962-4.622-3.063-7.397-3.063c-2.773,0-5.434,1.102-7.396,3.064l-41.949,41.974c-4.081,4.084-4.081,10.703,0.001,14.786
		l79.417,79.452c1.961,1.963,4.622,3.065,7.396,3.065c2.774,0,5.436-1.103,7.396-3.065l132.922-132.98
		c4.082-4.083,4.082-10.702,0.001-14.786L220.113,53.63z M121.748,221.185l-64.632-64.659l27.165-27.182l30.07,30.08
		c1.962,1.961,4.623,3.064,7.396,3.064c2.774,0,5.436-1.103,7.396-3.064l83.572-83.607l27.168,27.181L121.748,221.185z"/>
</g>
<g>
</g>
<g>
</g>
<g>
</g>
<g>
</g>
<g>
</g>
<g>
</g>
<g>
</g>
<g>
</g>
<g>
</g>
<g>
</g>
<g>
</g>
<g>
</g>
<g>
</g>
<g>
</g>
<g>
</g>
</svg>
