<?xml version="1.0" encoding="iso-8859-1"?>
<!-- Generator: Adobe Illustrator 18.0.0, SVG Export Plug-In . SVG Version: 6.00 Build 0)  -->
<!DOCTYPE svg PUBLIC "-//W3C//DTD SVG 1.1//EN" "http://www.w3.org/Graphics/SVG/1.1/DTD/svg11.dtd">
<svg version="1.1" id="Capa_1" xmlns="http://www.w3.org/2000/svg" xmlns:xlink="http://www.w3.org/1999/xlink" x="0px" y="0px"
	 viewBox="0 0 297 297" style="enable-background:new 0 0 297 297;" xml:space="preserve">
<path d="M16.307,287.116c0,5.458,4.426,9.884,9.884,9.884h32.615c5.458,0,9.884-4.426,9.884-9.884V167.392l205.628-78.098
	c3.978-1.511,6.543-5.398,6.365-9.651c-0.178-4.253-3.059-7.915-7.149-9.088L28.917,0.382c-2.983-0.854-6.195-0.262-8.673,1.607
	c-2.479,1.867-3.937,4.789-3.937,7.894V287.116z M48.924,277.232H36.075v-97.453l12.849-4.879V277.232z M36.075,158.634V23
	l203.451,58.365L36.075,158.634z"/>
<g>
</g>
<g>
</g>
<g>
</g>
<g>
</g>
<g>
</g>
<g>
</g>
<g>
</g>
<g>
</g>
<g>
</g>
<g>
</g>
<g>
</g>
<g>
</g>
<g>
</g>
<g>
</g>
<g>
</g>
</svg>
