<?xml version="1.0" encoding="iso-8859-1"?>
<!-- Generator: Adobe Illustrator 18.0.0, SVG Export Plug-In . SVG Version: 6.00 Build 0)  -->
<!DOCTYPE svg PUBLIC "-//W3C//DTD SVG 1.1//EN" "http://www.w3.org/Graphics/SVG/1.1/DTD/svg11.dtd">
<svg version="1.1" id="Capa_1" xmlns="http://www.w3.org/2000/svg" xmlns:xlink="http://www.w3.org/1999/xlink" x="0px" y="0px"
	 viewBox="0 0 297 297" style="enable-background:new 0 0 297 297;" xml:space="preserve">
<g>
	<path d="M295.474,98.954c-1.067-4.442-5.039-7.575-9.609-7.575c-14.051,0-21.653,4.302-27.765,7.758
		c-5.33,3.017-9.181,5.195-18.026,5.195c-8.846,0-12.698-2.179-18.029-5.195c-6.108-3.456-13.713-7.758-27.762-7.758
		c-14.049,0-21.651,4.302-27.762,7.758c-5.331,3.017-9.182,5.195-18.027,5.195c-8.846,0-12.696-2.179-18.027-5.195
		c-6.108-3.457-13.713-7.758-27.76-7.758c-14.051,0-21.653,4.302-27.762,7.759c-5.329,3.016-9.182,5.194-18.023,5.194
		c-8.844,0-12.696-2.179-18.025-5.194c-6.108-3.457-13.711-7.759-27.762-7.759c-4.568,0-8.542,3.133-9.607,7.575
		c-0.419,1.739-9.68,42.517,22.956,93.255v29.665c0,5.457,4.424,9.882,9.882,9.882h228.273c5.456,0,9.882-4.425,9.882-9.882v-29.665
		C305.155,141.471,295.891,100.692,295.474,98.954z M19.778,112.105c3.526,0.918,6.191,2.426,9.385,4.232
		c6.108,3.457,13.711,7.758,27.758,7.758s21.648-4.301,27.757-7.758c5.33-3.017,9.183-5.195,18.028-5.195
		c8.844,0,12.696,2.179,18.027,5.195c6.108,3.456,13.711,7.758,27.76,7.758c14.049,0,21.651-4.301,27.76-7.758
		c5.331-3.017,9.184-5.195,18.029-5.195c8.846,0,12.698,2.179,18.031,5.195c6.108,3.457,13.711,7.758,27.76,7.758
		c14.049,0,21.651-4.301,27.76-7.758c3.194-1.807,5.858-3.313,9.385-4.231c0.552,12.495-1.415,37.413-19.978,67.274H39.763
		C21.185,149.5,19.227,124.572,19.778,112.105z M252.756,211.992H44.246v-12.847h208.51V211.992z"/>
	<path d="M148.501,171.228c9.943,0,18.034-8.09,18.034-18.034c0-9.945-8.091-18.035-18.034-18.035
		c-9.945,0-18.035,8.09-18.035,18.035C130.466,163.139,138.556,171.228,148.501,171.228z"/>
	<path d="M100.326,164.558c6.265,0,11.364-5.098,11.364-11.363c0-6.268-5.1-11.365-11.364-11.365
		c-6.267,0-11.364,5.098-11.364,11.365C88.962,159.461,94.06,164.558,100.326,164.558z"/>
	<path d="M196.676,164.558c6.265,0,11.364-5.098,11.364-11.363c0-6.268-5.1-11.365-11.364-11.365
		c-6.268,0-11.364,5.098-11.364,11.365C185.311,159.461,190.408,164.558,196.676,164.558z"/>
	<path d="M244.851,164.558c6.265,0,11.363-5.098,11.363-11.363c0-6.268-5.099-11.365-11.363-11.365
		c-6.268,0-11.365,5.098-11.365,11.365C233.485,159.461,238.583,164.558,244.851,164.558z"/>
	<path d="M52.151,164.558c6.266,0,11.364-5.098,11.364-11.363c0-6.268-5.099-11.365-11.364-11.365
		c-6.267,0-11.364,5.098-11.364,11.365C40.787,159.461,45.885,164.558,52.151,164.558z"/>
	<path d="M50.667,85.009c2.599,0,5.148-1.058,6.987-2.896c1.838-1.837,2.896-4.387,2.896-6.985c0-2.6-1.058-5.148-2.896-6.987
		c-1.839-1.839-4.377-2.896-6.987-2.896c-2.6,0-5.148,1.057-6.986,2.896c-1.838,1.839-2.896,4.388-2.896,6.987
		c0,2.599,1.058,5.148,2.896,6.985C45.519,83.951,48.067,85.009,50.667,85.009z"/>
	<path d="M148.499,85.009c2.598,0,5.147-1.058,6.986-2.896c1.838-1.837,2.896-4.387,2.896-6.985c0-2.6-1.058-5.148-2.896-6.987
		c-1.839-1.839-4.389-2.896-6.986-2.896c-2.6,0-5.149,1.057-6.987,2.896c-1.837,1.839-2.895,4.388-2.895,6.987
		c0,2.599,1.058,5.148,2.895,6.985C143.35,83.951,145.899,85.009,148.499,85.009z"/>
	<path d="M246.33,85.009c2.599,0,5.147-1.058,6.987-2.896c1.837-1.837,2.895-4.387,2.895-6.985c0-2.6-1.058-5.148-2.895-6.987
		c-1.84-1.839-4.389-2.896-6.987-2.896c-2.6,0-5.149,1.057-6.986,2.896c-1.838,1.839-2.896,4.388-2.896,6.987
		c0,2.599,1.058,5.148,2.896,6.985C241.181,83.951,243.73,85.009,246.33,85.009z"/>
</g>
<g>
</g>
<g>
</g>
<g>
</g>
<g>
</g>
<g>
</g>
<g>
</g>
<g>
</g>
<g>
</g>
<g>
</g>
<g>
</g>
<g>
</g>
<g>
</g>
<g>
</g>
<g>
</g>
<g>
</g>
</svg>
