<?xml version="1.0" encoding="iso-8859-1"?>
<!-- Generator: Adobe Illustrator 18.0.0, SVG Export Plug-In . SVG Version: 6.00 Build 0)  -->
<!DOCTYPE svg PUBLIC "-//W3C//DTD SVG 1.1//EN" "http://www.w3.org/Graphics/SVG/1.1/DTD/svg11.dtd">
<svg version="1.1" id="Capa_1" xmlns="http://www.w3.org/2000/svg" xmlns:xlink="http://www.w3.org/1999/xlink" x="0px" y="0px"
	 viewBox="0 0 297 297" style="enable-background:new 0 0 297 297;" xml:space="preserve">
<path d="M24.181,287.094c0,5.471,4.435,9.906,9.906,9.906h32.689c5.471,0,9.905-4.435,9.905-9.906V175.615
	c1.903,0.07,3.819,0.114,5.762,0.114c23.073,0,45.985-4.937,68.144-9.71c22.116-4.765,43.007-9.266,63.97-9.266
	c16.348,0,30.883,2.839,44.438,8.679c3.062,1.321,6.581,1.013,9.364-0.822c2.785-1.832,4.461-4.941,4.461-8.274V19.394
	c0-3.955-2.354-7.532-5.986-9.097C250.755,3.368,233.654,0,214.557,0c-23.074,0-45.988,4.937-68.147,9.711
	c-22.116,4.764-43.004,9.264-63.967,9.266c-0.003,0-0.005,0-0.008,0c-16.342,0-30.874-2.84-44.428-8.68
	c-3.061-1.319-6.58-1.011-9.365,0.822c-2.784,1.832-4.461,4.941-4.461,8.275V287.094z M56.87,277.188H43.992V170.426
	c4.205,1.242,8.493,2.263,12.878,3.065V277.188z M253.008,142.234c-12.027-3.553-24.723-5.293-38.451-5.293
	c-23.073,0-45.985,4.936-68.143,9.711c-22.116,4.764-43.006,9.266-63.97,9.266c-13.967,0-26.612-2.073-38.451-6.319V33.495
	c12.025,3.553,24.718,5.293,38.442,5.293c0.002,0,0.007,0,0.009,0c23.072-0.002,45.982-4.938,68.139-9.711
	c22.118-4.765,43.011-9.266,63.975-9.266c13.967,0,26.612,2.073,38.451,6.319V142.234z"/>
<g>
</g>
<g>
</g>
<g>
</g>
<g>
</g>
<g>
</g>
<g>
</g>
<g>
</g>
<g>
</g>
<g>
</g>
<g>
</g>
<g>
</g>
<g>
</g>
<g>
</g>
<g>
</g>
<g>
</g>
</svg>
