<?xml version="1.0" encoding="iso-8859-1"?>
<!-- Generator: Adobe Illustrator 18.0.0, SVG Export Plug-In . SVG Version: 6.00 Build 0)  -->
<!DOCTYPE svg PUBLIC "-//W3C//DTD SVG 1.1//EN" "http://www.w3.org/Graphics/SVG/1.1/DTD/svg11.dtd">
<svg version="1.1" id="Capa_1" xmlns="http://www.w3.org/2000/svg" xmlns:xlink="http://www.w3.org/1999/xlink" x="0px" y="0px"
	 viewBox="0 0 297.001 297.001" style="enable-background:new 0 0 297.001 297.001;" xml:space="preserve">
<path d="M239.858,187.702c-1.151-3.543-4.19-6.144-7.869-6.735l-51.065-8.193l-15.796-30.836h0.812c5.483,0,9.93-4.447,9.93-9.929
	c0-5.484-4.446-9.93-9.93-9.93h-8.572l46.592-15.531c4.056-1.352,6.79-5.146,6.79-9.419V9.93c0-5.484-4.446-9.93-9.93-9.93H96.181
	c-5.483,0-9.93,4.445-9.93,9.93v87.199c0,4.273,2.734,8.067,6.79,9.419l46.592,15.531h-8.572c-5.483,0-9.93,4.445-9.93,9.93
	c0,5.481,4.446,9.929,9.93,9.929h0.814l-15.797,30.836l-51.065,8.193c-3.679,0.592-6.718,3.192-7.869,6.735
	c-1.151,3.543-0.223,7.434,2.406,10.075l36.492,36.659l-7.968,51.104c-0.574,3.68,0.961,7.373,3.976,9.563
	c1.729,1.256,3.776,1.897,5.836,1.897c1.532,0,3.07-0.355,4.487-1.072l46.129-23.379l46.129,23.379
	c3.322,1.685,7.308,1.367,10.323-0.824c3.015-2.189,4.55-5.883,3.976-9.563l-7.97-51.104l36.492-36.659
	C240.08,195.136,241.009,191.245,239.858,187.702z M106.11,19.858h84.781v70.112L148.5,104.103L106.11,89.971V19.858z
	 M183.337,223.992c-2.23,2.239-3.261,5.41-2.774,8.534l5.759,36.928l-33.332-16.893c-2.821-1.43-6.155-1.43-8.977,0l-33.333,16.893
	l5.758-36.93c0.486-3.124-0.543-6.293-2.774-8.532l-26.366-26.488l36.896-5.921c3.123-0.501,5.82-2.461,7.264-5.277l17.043-33.27
	l17.042,33.27c1.443,2.816,4.141,4.776,7.264,5.277l36.897,5.921L183.337,223.992z"/>
<g>
</g>
<g>
</g>
<g>
</g>
<g>
</g>
<g>
</g>
<g>
</g>
<g>
</g>
<g>
</g>
<g>
</g>
<g>
</g>
<g>
</g>
<g>
</g>
<g>
</g>
<g>
</g>
<g>
</g>
</svg>
