<?xml version="1.0" encoding="iso-8859-1"?>
<!-- Generator: Adobe Illustrator 18.0.0, SVG Export Plug-In . SVG Version: 6.00 Build 0)  -->
<!DOCTYPE svg PUBLIC "-//W3C//DTD SVG 1.1//EN" "http://www.w3.org/Graphics/SVG/1.1/DTD/svg11.dtd">
<svg version="1.1" id="Capa_1" xmlns="http://www.w3.org/2000/svg" xmlns:xlink="http://www.w3.org/1999/xlink" x="0px" y="0px"
	 viewBox="0 0 297 297" style="enable-background:new 0 0 297 297;" xml:space="preserve">
<path d="M296.534,114.348c-1.105-3.396-4.018-5.891-7.545-6.456l-90.316-14.504l-41.7-81.427c-1.628-3.18-4.9-5.18-8.473-5.18
	c-3.572,0-6.845,2-8.473,5.18l-41.7,81.427L8.011,107.891c-3.528,0.565-6.44,3.06-7.545,6.456c-1.104,3.397-0.213,7.126,2.308,9.658
	l64.541,64.828l-14.115,90.397c-0.551,3.529,0.92,7.07,3.81,9.171c2.891,2.099,6.714,2.403,9.899,0.789l81.592-41.358l81.592,41.358
	c1.36,0.688,2.834,1.027,4.303,1.027c1.975,0,3.94-0.613,5.597-1.816c2.89-2.1,4.36-5.642,3.81-9.171l-4.412-28.251h4.977
	c5.256-0.002,9.516-4.262,9.517-9.517l0.005-20.331l20.264-0.006c5.255-0.002,9.514-4.263,9.516-9.519l0.004-42.474
	c0-2.525-1.003-4.947-2.789-6.732c-1.784-1.785-4.205-2.788-6.73-2.788c-0.001,0-0.002,0-0.002,0l-15.377,0.004l35.453-35.612
	C296.747,121.473,297.638,117.745,296.534,114.348z M264.629,202.093l-20.261,0.006c-5.256,0.002-9.515,4.262-9.516,9.517
	l-0.005,20.328l-23.314,0.007l0.005-20.323c0.001-2.525-1.002-4.947-2.788-6.733c-1.786-1.785-4.206-2.788-6.731-2.788
	c0,0-0.001,0-0.002,0l-20.255,0.004l0.003-23.441l20.261-0.006c5.255-0.002,9.516-4.262,9.517-9.517l0.004-20.327l23.317-0.002
	l-0.006,20.318c-0.001,2.526,1.003,4.947,2.788,6.734c1.785,1.785,4.207,2.788,6.732,2.788c0.001,0,0.002,0,0.002,0l20.253-0.005
	L264.629,202.093z M253.756,137.672c-0.333-1.92-1.242-3.708-2.64-5.105c-1.785-1.785-4.207-2.788-6.732-2.788l-42.355,0.006
	c-5.255,0.001-9.517,4.262-9.518,9.517l-0.005,20.327l-20.262,0.007c-5.256,0.002-9.516,4.262-9.517,9.518l-0.005,42.477
	c0,2.524,1.003,4.946,2.788,6.732c1.786,1.784,4.206,2.788,6.732,2.788c0,0,0.001,0,0.002,0l20.254-0.004l-0.005,20.322
	c-0.001,2.525,1.002,4.947,2.788,6.733c1.786,1.785,4.206,2.788,6.731,2.788c0.001,0,0.002,0,0.002,0l18.106-0.005l2.002,12.822
	l-69.319-35.137c-2.705-1.37-5.902-1.37-8.607,0l-69.319,35.137l11.991-76.802c0.469-2.996-0.52-6.036-2.658-8.186l-54.834-55.078
	l76.732-12.322c2.995-0.48,5.581-2.359,6.964-5.059L148.5,37.183l35.428,69.178c1.383,2.699,3.969,4.578,6.964,5.059l76.732,12.322
	L253.756,137.672z"/>
<g>
</g>
<g>
</g>
<g>
</g>
<g>
</g>
<g>
</g>
<g>
</g>
<g>
</g>
<g>
</g>
<g>
</g>
<g>
</g>
<g>
</g>
<g>
</g>
<g>
</g>
<g>
</g>
<g>
</g>
</svg>
