<?xml version="1.0" encoding="iso-8859-1"?>
<!-- Generator: Adobe Illustrator 16.0.0, SVG Export Plug-In . SVG Version: 6.00 Build 0)  -->
<!DOCTYPE svg PUBLIC "-//W3C//DTD SVG 1.1//EN" "http://www.w3.org/Graphics/SVG/1.1/DTD/svg11.dtd">
<svg version="1.1" id="Capa_1" xmlns="http://www.w3.org/2000/svg" xmlns:xlink="http://www.w3.org/1999/xlink" x="0px" y="0px"
	 width="198.495px" height="198.495px" viewBox="0 0 198.495 198.495" style="enable-background:new 0 0 198.495 198.495;"
	 xml:space="preserve" fill="#ED757A">
<g>
	<path d="M160.607,160.644c0,2.582-2.095,4.677-4.677,4.677H42.581c-2.582,0-4.677-2.095-4.677-4.677s2.095-4.676,4.677-4.676
		h113.35C158.512,155.968,160.607,158.062,160.607,160.644z M197.781,83.05l-38.282,60.751c-0.871,1.364-2.351,2.192-3.964,2.192
		H42.967c-1.611,0-3.094-0.828-3.961-2.192L0.724,83.05c-1.175-1.857-0.898-4.284,0.673-5.824c1.571-1.547,4.003-1.781,5.831-0.597
		l51.459,33.384L92.38,59.299c-4.241-2.405-7.139-6.908-7.139-12.12c0-7.718,6.287-14.005,13.999-14.005
		c7.709,0,13.999,6.287,13.999,14.005c0,5.212-2.904,9.721-7.143,12.12l33.375,50.202l51.824-32.891
		c1.852-1.172,4.263-0.91,5.81,0.636C198.669,78.791,198.938,81.199,197.781,83.05z M94.606,47.185c0,2.558,2.083,4.646,4.646,4.646
		s4.646-2.088,4.646-4.646c0-2.561-2.076-4.652-4.646-4.652C96.682,42.533,94.606,44.625,94.606,47.185z M43.335,133.121
		l10.175-15.308L19.978,96.056L43.335,133.121z M82.535,136.64l-21.175-13.749l-9.134,13.749H82.535z M98.248,135.679l33.332-21.154
		l-32.327-48.64l-32.717,49.224L98.248,135.679z M114.189,136.64h32.09l-9.518-14.333L114.189,136.64z M178.794,95.636
		l-34.129,21.665l10.51,15.819L178.794,95.636z"/>
</g>
</svg>
